<?xml version="1.0" encoding="UTF-8"?>
<svg width="483px" height="136px" viewBox="0 0 483 136" version="1.1" xmlns="http://www.w3.org/2000/svg" xmlns:xlink="http://www.w3.org/1999/xlink">
    <!-- Generator: Sketch 54.1 (76490) - https://sketchapp.com -->
    <title>dark-logo</title>
    <desc>Created with Sketch.</desc>
    <defs>
        <path d="M53.9,17.4301075 C52.833328,16.0537566 51.266677,15.0358456 49.2,14.3763441 C47.133323,13.7168426 45.133343,13.3870968 43.2,13.3870968 C42.066661,13.3870968 40.866673,13.501791 39.6,13.7311828 C38.333327,13.9605746 37.1500055,14.318994 36.05,14.8064516 C34.9499945,15.2939092 34.000004,15.9390641 33.2,16.7419355 C32.399996,17.5448069 31.900001,18.5197075 31.7,19.6666667 C31.499999,21.0430176 31.7833295,22.1756228 32.55,23.0645161 C33.3166705,23.9534095 34.4166595,24.6989217 35.85,25.3010753 C37.2833405,25.9032288 38.9499905,26.4336895 40.85,26.8924731 C42.7500095,27.3512568 44.666657,27.8673806 46.6,28.4408602 C48.533343,29.0143398 50.4166575,29.7025049 52.25,30.5053763 C54.0833425,31.3082477 55.66666,32.3261587 57,33.5591398 C58.33334,34.7921209 59.3166635,36.3404925 59.95,38.2043011 C60.5833365,40.0681097 60.666669,42.3189832 60.2,44.9569892 C59.666664,48.3405187 58.4500095,51.2938942 56.55,53.8172043 C54.6499905,56.3405144 52.3166805,58.4336834 49.55,60.0967742 C46.7833195,61.7598649 43.6833505,62.9928275 40.25,63.7956989 C36.8166495,64.5985703 33.266685,65 29.6,65 C24.999977,65 20.833352,64.3978555 17.1,63.1935484 C13.366648,61.9892413 10.000015,60.03944 7,57.344086 L19.9,46.8494624 C21.23334,48.684597 23.0166555,50.1039376 25.25,51.1075269 C27.4833445,52.1111161 29.899987,52.6129032 32.5,52.6129032 C33.766673,52.6129032 35.06666,52.4838723 36.4,52.2258065 C37.73334,51.9677406 38.966661,51.5806477 40.1,51.0645161 C41.233339,50.5483845 42.1833295,49.8888929 42.95,49.0860215 C43.7166705,48.2831501 44.199999,47.336923 44.4,46.2473118 C44.733335,44.4121772 44.1500075,42.964163 42.65,41.9032258 C41.1499925,40.8422886 39.233345,39.9390718 36.9,39.1935484 C34.566655,38.4480249 32.033347,37.7025127 29.3,36.9569892 C26.566653,36.2114658 24.066678,35.2078916 21.8,33.9462366 C19.533322,32.6845815 17.7500065,31.0215157 16.45,28.9569892 C15.1499935,26.8924628 14.766664,24.1684757 15.3,20.7849462 C15.833336,17.5161127 17.0499905,14.6487578 18.95,12.1827957 C20.8500095,9.71683355 23.199986,7.65233806 26,5.98924731 C28.800014,4.32615656 31.899983,3.0788572 35.3,2.24731183 C38.700017,1.41576645 42.133316,1 45.6,1 C49.60002,1 53.3833155,1.48745032 56.95,2.46236559 C60.5166845,3.43728086 63.599987,5.07167312 66.2,7.3655914 L53.9,17.4301075 Z M64.4,33 C65.200004,28.1254237 66.8833205,23.7096972 69.45,19.7526882 C72.0166795,15.7956791 75.2166475,12.4265372 79.05,9.64516129 C82.8833525,6.86378538 87.266642,4.72760602 92.2,3.23655914 C97.133358,1.74551226 102.366639,1 107.9,1 C113.433361,1 118.399978,1.74551226 122.8,3.23655914 C127.200022,4.72760602 130.866652,6.86378538 133.8,9.64516129 C136.733348,12.4265372 138.833327,15.7956791 140.1,19.7526882 C141.366673,23.7096972 141.600004,28.1254237 140.8,33 C139.999996,37.8745763 138.333346,42.2903028 135.8,46.2473118 C133.266654,50.2043209 130.066686,53.5734628 126.2,56.3548387 C122.333314,59.1362146 117.950024,61.272394 113.05,62.7634409 C108.149975,64.2544877 102.933361,65 97.4,65 C91.866639,65 86.8833555,64.2544877 82.45,62.7634409 C78.0166445,61.272394 74.333348,59.1362146 71.4,56.3548387 C68.466652,53.5734628 66.366673,50.2043209 65.1,46.2473118 C63.833327,42.2903028 63.599996,37.8745763 64.4,33 Z M80.6,33 C80.133331,35.8673978 80.23333,38.4910275 80.9,40.8709677 C81.56667,43.250908 82.7166585,45.3154034 84.35,47.0645161 C85.9833415,48.8136288 88.066654,50.1756224 90.6,51.1505376 C93.133346,52.1254529 96.06665,52.6129032 99.4,52.6129032 C102.73335,52.6129032 105.833319,52.1254529 108.7,51.1505376 C111.566681,50.1756224 114.099989,48.8136288 116.3,47.0645161 C118.500011,45.3154034 120.316659,43.250908 121.75,40.8709677 C123.183341,38.4910275 124.133331,35.8673978 124.6,33 C125.066669,30.1899501 124.983337,27.5806572 124.35,25.172043 C123.716664,22.7634288 122.566675,20.6845966 120.9,18.9354839 C119.233325,17.1863712 117.133346,15.8243776 114.6,14.8494624 C112.066654,13.8745471 109.13335,13.3870968 105.8,13.3870968 C102.46665,13.3870968 99.366681,13.8745471 96.5,14.8494624 C93.633319,15.8243776 91.100011,17.1863712 88.9,18.9354839 C86.699989,20.6845966 84.8833405,22.7634288 83.45,25.172043 C82.0166595,27.5806572 81.066669,30.1899501 80.6,33 Z M194.6,18.3763441 C193.26666,16.7706013 191.566677,15.5376387 189.5,14.6774194 C187.433323,13.8172 184.933348,13.3870968 182,13.3870968 C179.066652,13.3870968 176.26668,13.8745471 173.6,14.8494624 C170.93332,15.8243776 168.550011,17.1863712 166.45,18.9354839 C164.34999,20.6845966 162.583341,22.7634288 161.15,25.172043 C159.71666,27.5806572 158.766669,30.1899501 158.3,33 C157.833331,35.8673978 157.916664,38.4910275 158.55,40.8709677 C159.183337,43.250908 160.249993,45.3154034 161.75,47.0645161 C163.250008,48.8136288 165.149989,50.1756224 167.45,51.1505376 C169.750012,52.1254529 172.299986,52.6129032 175.1,52.6129032 C178.300016,52.6129032 181.23332,52.0394323 183.9,50.8924731 C186.56668,49.745514 188.866657,48.1397953 190.8,46.0752688 L202.4,54.4193548 C198.799982,58.0322761 194.566691,60.6989161 189.7,62.4193548 C184.833309,64.1397935 179.966691,65 175.1,65 C169.566639,65 164.583356,64.2544877 160.15,62.7634409 C155.716645,61.272394 152.033348,59.1362146 149.1,56.3548387 C146.166652,53.5734628 144.066673,50.2043209 142.8,46.2473118 C141.533327,42.2903028 141.299996,37.8745763 142.1,33 C142.900004,28.1254237 144.583321,23.7096972 147.15,19.7526882 C149.71668,15.7956791 152.916648,12.4265372 156.75,9.64516129 C160.583353,6.86378538 164.966642,4.72760602 169.9,3.23655914 C174.833358,1.74551226 180.066639,1 185.6,1 C187.60001,1 189.64999,1.15770452 191.75,1.47311828 C193.850011,1.78853204 195.89999,2.29031914 197.9,2.97849462 C199.90001,3.66667011 201.783325,4.58422366 203.55,5.7311828 C205.316676,6.87814194 206.799994,8.28314581 208,9.94623656 L194.6,18.3763441 Z M213.7,2.5483871 L229.3,2.5483871 L219.4,63.4516129 L203.8,63.4516129 L213.7,2.5483871 Z M261.3,2.5483871 L274.2,2.5483871 L295.1,63.4516129 L277.5,63.4516129 L273.5,50.5483871 L246,50.5483871 L238,63.4516129 L220.8,63.4516129 L261.3,2.5483871 Z M264.4,20.2688172 L252.7,39.1935484 L270,39.1935484 L264.4,20.2688172 Z M307.2,2.5483871 L322.8,2.5483871 L314.9,51.0645161 L343.8,51.0645161 L341.8,63.4516129 L297.3,63.4516129 L307.2,2.5483871 Z M9.9,73.9483871 L25.5,73.9483871 L15.6,134.851613 L0,134.851613 L9.9,73.9483871 Z M34.2,73.9483871 L57.8,73.9483871 L67.6,113.690323 L67.8,113.690323 L90.7,73.9483871 L114.2,73.9483871 L104.3,134.851613 L88.7,134.851613 L96.3,88.1419355 L96.1,88.1419355 L69.9,134.851613 L58,134.851613 L47.7,88.1419355 L47.5,88.1419355 L39.9,134.851613 L24.3,134.851613 L34.2,73.9483871 Z M123.1,73.9483871 L149.4,73.9483871 C153.066685,73.9483871 156.483317,74.2351226 159.65,74.8086022 C162.816682,75.3820817 165.499989,76.3713191 167.7,77.7763441 C169.900011,79.181369 171.533328,81.0738232 172.6,83.4537634 C173.666672,85.8337037 173.900003,88.8300895 173.3,92.4430108 C172.699997,95.9985841 171.533342,98.9806331 169.8,101.389247 C168.066658,103.797862 165.916679,105.718989 163.35,107.152688 C160.78332,108.586387 157.850016,109.604298 154.55,110.206452 C151.249983,110.808605 147.733352,111.109677 144,111.109677 L132.6,111.109677 L128.8,134.851613 L113.2,134.851613 L123.1,73.9483871 Z M134.5,99.7548387 L144.9,99.7548387 C146.300007,99.7548387 147.66666,99.6401445 149,99.4107527 C150.33334,99.1813609 151.566661,98.794268 152.7,98.2494624 C153.833339,97.7046568 154.799996,96.9591445 155.6,96.0129032 C156.400004,95.0666619 156.899999,93.8767097 157.1,92.4430108 C157.366668,90.8946159 157.150003,89.6473166 156.45,88.7010753 C155.749996,87.754834 154.783339,87.0236585 153.55,86.5075269 C152.31666,85.9913953 150.916674,85.6616495 149.35,85.5182796 C147.783325,85.3749097 146.266674,85.3032258 144.8,85.3032258 L136.8,85.3032258 L134.5,99.7548387 Z M171.8,104.4 C172.600004,99.5254237 174.28332,95.1096972 176.85,91.1526882 C179.416679,87.1956791 182.616647,83.8265372 186.45,81.0451613 C190.283352,78.2637854 194.666642,76.127606 199.6,74.6365591 C204.533358,73.1455123 209.766639,72.4 215.3,72.4 C220.833361,72.4 225.799978,73.1455123 230.2,74.6365591 C234.600022,76.127606 238.266652,78.2637854 241.2,81.0451613 C244.133348,83.8265372 246.233327,87.1956791 247.5,91.1526882 C248.766673,95.1096972 249.000004,99.5254237 248.2,104.4 C247.399996,109.274576 245.733346,113.690303 243.2,117.647312 C240.666654,121.604321 237.466686,124.973463 233.6,127.754839 C229.733314,130.536215 225.350024,132.672394 220.45,134.163441 C215.549975,135.654488 210.333361,136.4 204.8,136.4 C199.266639,136.4 194.283355,135.654488 189.85,134.163441 C185.416644,132.672394 181.733348,130.536215 178.8,127.754839 C175.866652,124.973463 173.766673,121.604321 172.5,117.647312 C171.233327,113.690303 170.999996,109.274576 171.8,104.4 Z M188,104.4 C187.533331,107.267398 187.63333,109.891028 188.3,112.270968 C188.96667,114.650908 190.116658,116.715403 191.75,118.464516 C193.383341,120.213629 195.466654,121.575622 198,122.550538 C200.533346,123.525453 203.46665,124.012903 206.8,124.012903 C210.13335,124.012903 213.233319,123.525453 216.1,122.550538 C218.966681,121.575622 221.499989,120.213629 223.7,118.464516 C225.900011,116.715403 227.716659,114.650908 229.15,112.270968 C230.58334,109.891028 231.533331,107.267398 232,104.4 C232.466669,101.58995 232.383336,98.9806572 231.75,96.572043 C231.116663,94.1634288 229.966675,92.0845966 228.3,90.3354839 C226.633325,88.5863712 224.533346,87.2243776 222,86.2494624 C219.466654,85.2745471 216.53335,84.7870968 213.2,84.7870968 C209.86665,84.7870968 206.766681,85.2745471 203.9,86.2494624 C201.033319,87.2243776 198.500011,88.5863712 196.3,90.3354839 C194.099989,92.0845966 192.283341,94.1634288 190.85,96.572043 C189.41666,98.9806572 188.466669,101.58995 188,104.4 Z M258.3,73.9483871 L285.7,73.9483871 C289.300018,73.9483871 292.666651,74.2494594 295.8,74.8516129 C298.933349,75.4537665 301.599989,76.4573406 303.8,77.8623656 C306.000011,79.2673905 307.633328,81.1598447 308.7,83.5397849 C309.766672,85.9197252 310.000003,88.8874374 309.4,92.4430108 C308.666663,96.7441075 306.766682,100.399985 303.7,103.410753 C300.633318,106.42152 296.533359,108.328311 291.4,109.131183 L305.2,134.851613 L286.5,134.851613 L275.6,110.507527 L267.9,110.507527 L264,134.851613 L248.4,134.851613 L258.3,73.9483871 Z M269.8,99.1526882 L279,99.1526882 C280.400007,99.1526882 281.883326,99.1096778 283.45,99.0236559 C285.016675,98.937634 286.46666,98.679572 287.8,98.2494624 C289.13334,97.8193527 290.299995,97.1455243 291.3,96.227957 C292.300005,95.3103897 292.933332,94.02008 293.2,92.3569892 C293.466668,90.8085944 293.300003,89.5756318 292.7,88.6580645 C292.099997,87.7404972 291.266672,87.0379953 290.2,86.5505376 C289.133328,86.06308 287.883341,85.7333342 286.45,85.5612903 C285.01666,85.3892465 283.600007,85.3032258 282.2,85.3032258 L272,85.3032258 L269.8,99.1526882 Z M332.6,85.8193548 L312.4,85.8193548 L314.3,73.9483871 L370.3,73.9483871 L368.4,85.8193548 L348.2,85.8193548 L340.2,134.851613 L324.6,134.851613 L332.6,85.8193548 Z M373.3,73.9483871 L421.4,73.9483871 L419.4,86.3354839 L386.9,86.3354839 L385,97.6903226 L415.7,97.6903226 L413.7,110.077419 L383,110.077419 L381,122.464516 L415.3,122.464516 L413.3,134.851613 L363.4,134.851613 L373.3,73.9483871 Z M430.2,73.9483871 L457.6,73.9483871 C461.200018,73.9483871 464.566651,74.2494594 467.7,74.8516129 C470.833349,75.4537665 473.499989,76.4573406 475.7,77.8623656 C477.900011,79.2673905 479.533328,81.1598447 480.6,83.5397849 C481.666672,85.9197252 481.900003,88.8874374 481.3,92.4430108 C480.566663,96.7441075 478.666682,100.399985 475.6,103.410753 C472.533318,106.42152 468.433359,108.328311 463.3,109.131183 L477.1,134.851613 L458.4,134.851613 L447.5,110.507527 L439.8,110.507527 L435.9,134.851613 L420.3,134.851613 L430.2,73.9483871 Z M441.7,99.1526882 L450.9,99.1526882 C452.300007,99.1526882 453.783325,99.1096778 455.35,99.0236559 C456.916674,98.937634 458.36666,98.679572 459.7,98.2494624 C461.03334,97.8193527 462.199995,97.1455243 463.2,96.227957 C464.200005,95.3103897 464.833332,94.02008 465.1,92.3569892 C465.366668,90.8085944 465.200003,89.5756318 464.6,88.6580645 C463.999997,87.7404972 463.166672,87.0379953 462.1,86.5505376 C461.033328,86.06308 459.78334,85.7333342 458.35,85.5612903 C456.916659,85.3892465 455.500007,85.3032258 454.1,85.3032258 L443.9,85.3032258 L441.7,99.1526882 Z M360.386791,52.5438868 L379.080943,33 L360.386791,13.4561132 L367.613209,6.54388677 L392.919057,33 L367.613209,59.4561132 L360.386791,52.5438868 Z M390.386791,52.5438868 L409.080943,33 L390.386791,13.4561132 L397.613209,6.54388677 L422.919057,33 L397.613209,59.4561132 L390.386791,52.5438868 Z M420.386791,52.5438868 L439.080943,33 L420.386791,13.4561132 L427.613209,6.54388677 L452.919057,33 L427.613209,59.4561132 L420.386791,52.5438868 Z M450.386791,52.5438868 L469.080943,33 L450.386791,13.4561132 L457.613209,6.54388677 L482.919057,33 L457.613209,59.4561132 L450.386791,52.5438868 Z" id="path-1"></path>
    </defs>
    <g id="Logos" stroke="none" stroke-width="1" fill="none" fill-rule="evenodd">
        <g id="dark-padded-logo" transform="translate(-59.000000, -33.000000)">
            <g id="dark-logo" transform="translate(59.000000, 32.000000)">
                <mask id="mask-2" fill="white">
                    <use xlink:href="#path-1"></use>
                </mask>
                <use id="social-importer" fill="#FFFFFF" fill-rule="nonzero" xlink:href="#path-1"></use>
            </g>
        </g>
    </g>
</svg>